<?xml version="1.0" encoding="utf-8"?>
<svg xmlns="http://www.w3.org/2000/svg" width="1962px" height="1962px" version="1.1" style="shape-rendering:geometricPrecision; text-rendering:geometricPrecision; image-rendering:optimizeQuality; fill-rule:evenodd; clip-rule:evenodd" viewBox="0 0 2034 2034">
  <defs>
    <style type="text/css">
   
    .fil0 {fill:none}
    .fil3 {fill:#FC777A}
    .fil2 {fill:#2C2C6F}
    .fil1 {fill:#2C2C6F;fill-opacity:0.050980}
   
  </style>
    <linearGradient gradientUnits="userSpaceOnUse" x1="1406.5" y1="828" x2="1406.5" y2="1936" id="gradient-1" gradientTransform="matrix(0.935348, 0.353729, -0.377216, 0.997451, 403.267809, -495.409994)">
      <stop offset="0" style="stop-color: rgb(95.686% 13.725% 65.098% / 0.87)"/>
      <stop offset="1" style="stop-color: rgb(63.416% 0% 40.977% / 0.87)"/>
    </linearGradient>
    <linearGradient gradientUnits="userSpaceOnUse" x1="543.953" y1="509" x2="543.953" y2="1583" id="gradient-2">
      <stop offset="0" style="stop-color: rgb(95.686% 13.725% 65.098% / 0.87)"/>
      <stop offset="1" style="stop-color: rgb(63.416% 0% 40.977% / 0.87)"/>
    </linearGradient>
  </defs>
  <rect class="fil0" width="2034" height="2034"/>
  <path class="fil1" d="M1744 451l-784 0c-45,62 -118,103 -200,103 -82,0 -155,-41 -200,-103l-270 0c-106,0 -192,87 -192,193l0 747c0,105 86,192 192,192l1454 0c106,0 192,-87 192,-192l0 -747c0,-106 -86,-193 -192,-193z" style="fill: rgb(157, 143, 223); fill-opacity: 0.2;"/>
  <path class="fil2" d="M1249 1583l0 316c0,11 -4,19 -11,27 -7,7 -16,10 -27,10l-207 0c-12,0 -21,-3 -28,-10 -8,-8 -11,-16 -11,-27l0 -1032c0,-11 4,-20 11,-28 8,-8 17,-11 28,-11l465 0c111,0 202,36 273,108 71,73 106,163 106,271 -3,109 -39,199 -109,269 -71,72 -160,107 -270,107l-220 0zm0 -507l0 259 171 0c38,-1 69,-13 94,-38 24,-24 36,-55 36,-92 0,-37 -12,-68 -36,-92 -25,-25 -56,-37 -94,-37l-171 0z" style="fill: url(&quot;#gradient-1&quot;);"/>
  <path class="fil2" d="M500 1583c-54,0 -105,-7 -154,-22 -49,-14 -93,-35 -131,-62 -18,-13 -27,-27 -29,-42 -1,-15 6,-31 20,-49l101 -121c10,-12 21,-19 33,-20 12,-1 26,3 41,13 20,12 39,21 57,26 18,6 37,8 56,8 36,0 67,-11 89,-35 24,-23 35,-53 35,-91l0 -679c40,28 89,45 142,45 53,0 102,-17 142,-45l0 689c0,117 -37,211 -113,280 -75,70 -171,105 -289,105z" style="fill: url(&quot;#gradient-2&quot;);"/>
  <circle class="fil3" cx="760" cy="308" r="209" style="fill-rule: evenodd; paint-order: stroke markers; fill: rgb(227, 0, 0);"/>
</svg>